C:\GBW_MyPrograms\KinderuniversiteitApp\Resultaten\Ellis_v10102025\Reus\Reus_v6.mot
version=1
nRows=16
nColumns=29
inDegrees=yes
endheader
                time	         pelvis_tilt	           pelvis_tx	           pelvis_ty	       hip_flexion_l	       hip_flexion_r	        knee_angle_l	        knee_angle_r	       ankle_angle_l	       ankle_angle_r	    lumbar_extension	hamstrings_r/activation	bifemsh_r/activation	glut_max_r/activation	iliopsoas_r/activation	rect_fem_r/activation	  vasti_r/activation	gastroc_r/activation	 soleus_r/activation	tib_ant_r/activation	hamstrings_l/activation	bifemsh_l/activation	glut_max_l/activation	iliopsoas_l/activation	rect_fem_l/activation	  vasti_l/activation	gastroc_l/activation	 soleus_l/activation	tib_ant_l/activation	
          0.30000006	         -8.98026889	          0.79076876	          0.76310052	        -12.99680691	        -13.76753035	          9.20908916	         12.34788770	        -33.63522725	        -32.55583802	         -5.27916284	          0.40811104	          0.44876879	          0.54496682	          0.40787948	          0.40797867	          0.56364715	          0.40741762	          0.40958621	          0.40790540	          0.40793726	          0.44816721	          0.54899903	          0.40901413	          0.40826468	          0.47667122	          0.40734000	          0.39845419	          0.40801525	
          0.30200006	         -8.97111166	          0.80787855	          0.76286878	        -12.97942021	        -13.60956329	          9.19130028	         12.29627434	        -33.59549729	        -32.45557547	         -5.27912365	          0.40822257	          0.44888387	          0.54404761	          0.40800882	          0.40811294	          0.56775418	          0.40756308	          0.40965924	          0.40801201	          0.40815770	          0.44843817	          0.55099629	          0.40899133	          0.40831431	          0.47523497	          0.40763006	          0.40213761	          0.40808213	
          0.30400006	         -8.95508993	          0.82287662	          0.76234451	        -12.99755339	        -13.45009579	          9.23823425	         11.95920805	        -33.54501134	        -32.30220011	         -5.27961434	          0.40826823	          0.44905468	          0.54116731	          0.40814997	          0.40823018	          0.54928852	          0.40772244	          0.40986214	          0.40808647	          0.40837773	          0.44867503	          0.55332393	          0.40894142	          0.40834220	          0.47143067	          0.40787648	          0.40547554	          0.40812881	
          0.30600006	         -8.93822957	          0.83602299	          0.76175992	        -13.05352584	        -13.35790597	          9.30021432	         11.91224568	        -33.49775204	        -32.12034388	         -5.27939063	          0.40829139	          0.44921711	          0.53732094	          0.40828351	          0.40833055	          0.52465316	          0.40787946	          0.41018783	          0.40813604	          0.40859353	          0.44884650	          0.55617556	          0.40886757	          0.40834863	          0.47316324	          0.40807805	          0.40863628	          0.40816057	
          0.30800006	         -8.91715644	          0.84753294	          0.76124768	        -13.16657839	        -13.29701186	          9.44288699	         11.86578949	        -33.44932061	        -31.94290238	         -5.27881394	          0.40825748	          0.44927161	          0.53351795	          0.40841312	          0.40842684	          0.51105824	          0.40804688	          0.41091075	          0.40814600	          0.40877535	          0.44894381	          0.55808171	          0.40878461	          0.40836005	          0.48524280	          0.40823432	          0.41124038	          0.40818555	
          0.31000006	         -8.93258738	          0.85758893	          0.76105883	        -13.31500099	        -13.24411682	          9.56885523	         11.67483638	        -33.38836710	        -31.74843959	         -5.27842641	          0.40820666	          0.44918588	          0.53072173	          0.40851129	          0.40851555	          0.53292456	          0.40819961	          0.41194975	          0.40812852	          0.40883083	          0.44894805	          0.55764008	          0.40873077	          0.40840278	          0.51351528	          0.40831895	          0.41257510	          0.40821109	
          0.31200006	         -8.93886003	          0.86637011	          0.76111761	        -13.41269386	        -13.22105433	          9.47589538	         11.60835554	        -33.31813680	        -31.56474465	         -5.27940904	          0.40815159	          0.44913592	          0.52899769	          0.40859452	          0.40859189	          0.53589359	          0.40832749	          0.41284876	          0.40810374	          0.40887022	          0.44891529	          0.55882457	          0.40869262	          0.40841225	          0.54467759	          0.40836220	          0.41288371	          0.40823913	
          0.31400006	         -8.95093956	          0.87399866	          0.76116712	        -13.53168314	        -13.19454833	          9.48552422	         11.51166018	        -33.26740537	        -31.38432039	         -5.28054306	          0.40812981	          0.44907361	          0.52671808	          0.40866170	          0.40865923	          0.53349276	          0.40845270	          0.41367608	          0.40807469	          0.40885604	          0.44889121	          0.55710012	          0.40865475	          0.40844851	          0.57088356	          0.40836454	          0.41218953	          0.40826484	
          0.31600006	         -8.96453711	          0.88058293	          0.76117206	        -13.64207559	        -13.16896577	          9.48687518	         11.44805871	        -33.22822670	        -31.21677200	         -5.28165578	          0.40809756	          0.44894990	          0.52592292	          0.40871834	          0.40872340	          0.54345122	          0.40855339	          0.41446235	          0.40804067	          0.40882381	          0.44896537	          0.55444316	          0.40864646	          0.40846628	          0.57269156	          0.40834466	          0.40968590	          0.40830353	
          0.31800007	         -8.97106510	          0.88621885	          0.76114877	        -13.77136300	        -13.14442552	          9.57208710	         11.35986927	        -33.20499888	        -31.05930419	         -5.28263667	          0.40808481	          0.44877808	          0.52709095	          0.40875501	          0.40878585	          0.56350232	          0.40863229	          0.41519000	          0.40800401	          0.40878478	          0.44911862	          0.55158512	          0.40865285	          0.40848074	          0.55597209	          0.40830515	          0.40559361	          0.40835552	
          0.32000007	         -8.97020682	          0.89098394	          0.76113259	        -13.91526530	        -13.12563276	          9.71666885	         11.29738047	        -33.19362957	        -30.92698470	         -5.28297049	          0.40809929	          0.44864503	          0.52775648	          0.40877407	          0.40883855	          0.56903446	          0.40868528	          0.41564404	          0.40797490	          0.40874227	          0.44930756	          0.54742018	          0.40866113	          0.40849653	          0.53336822	          0.40824546	          0.40055929	          0.40841462	
          0.32200007	         -8.97501064	          0.89493386	          0.76109717	        -14.03720334	        -13.12009818	          9.81380305	         11.28078826	        -33.18715139	        -30.82178996	         -5.28229999	          0.40817112	          0.44857482	          0.53055367	          0.40877714	          0.40887059	          0.55856230	          0.40870444	          0.41559694	          0.40796820	          0.40872493	          0.44944528	          0.54589139	          0.40866264	          0.40849779	          0.51754411	          0.40816035	          0.39501248	          0.40847879	
          0.32400007	         -8.96949168	          0.89811229	          0.76109039	        -14.15933190	        -13.13483534	          9.92558001	         11.40008357	        -33.18102450	        -30.74745479	         -5.28083882	          0.40825605	          0.44856395	          0.53247714	          0.40877918	          0.40889519	          0.53723860	          0.40869062	          0.41510714	          0.40798303	          0.40868828	          0.44947811	          0.54476478	          0.40865592	          0.40851725	          0.51555937	          0.40804898	          0.38962348	          0.40854223	
          0.32600007	         -8.97282137	          0.90054528	          0.76091191	        -14.27381205	        -13.13668483	         10.04248464	         11.34206895	        -33.17088596	        -30.67078391	         -5.27912685	          0.40830703	          0.44851155	          0.53318182	          0.40880866	          0.40894200	          0.52537525	          0.40867427	          0.41471749	          0.40799767	          0.40862163	          0.44947164	          0.54263607	          0.40864991	          0.40854943	          0.52147454	          0.40790908	          0.38389163	          0.40860857	
          0.32800007	         -8.94694527	          0.90226606	          0.76059152	        -14.36682423	        -13.14416533	         10.07416432	         11.42470019	        -33.16045449	        -30.61583704	         -5.27688413	          0.40835775	          0.44841371	          0.53629953	          0.40882689	          0.40899799	          0.52209884	          0.40862306	          0.41425336	          0.40801510	          0.40858843	          0.44948026	          0.54435016	          0.40864463	          0.40855888	          0.52100931	          0.40782541	          0.38082270	          0.40865334	
          0.33000007	         -8.90708403	          0.90330784	          0.76030737	        -14.46173113	        -13.14372525	         10.16775605	         11.49966293	        -33.15488119	        -30.58723107	         -5.27474106	          0.40844530	          0.44828814	          0.53923411	          0.40883468	          0.40905295	          0.52648489	          0.40855556	          0.41378697	          0.40803526	          0.40869700	          0.44958657	          0.54810685	          0.40859722	          0.40852621	          0.50070792	          0.40791585	          0.38387390	          0.40862876	
